<svg width="1200" height="630" viewBox="0 0 1200 630" xmlns="http://www.w3.org/2000/svg">
  <rect width="1200" height="630" fill="#080c14"/>
  <defs>
    <linearGradient id="g" x1="0" y1="0" x2="1" y2="1">
      <stop offset="0%" stop-color="#03a9f4" stop-opacity="0.15"/>
      <stop offset="100%" stop-color="#0288d1" stop-opacity="0.05"/>
    </linearGradient>
  </defs>
  <rect width="1200" height="630" fill="url(#g)"/>
  <!-- Grid -->
  <g stroke="#03a9f4" stroke-opacity="0.05">
    <line x1="0" y1="105" x2="1200" y2="105"/>
    <line x1="0" y1="210" x2="1200" y2="210"/>
    <line x1="0" y1="315" x2="1200" y2="315"/>
    <line x1="0" y1="420" x2="1200" y2="420"/>
    <line x1="0" y1="525" x2="1200" y2="525"/>
    <line x1="150" y1="0" x2="150" y2="630"/>
    <line x1="300" y1="0" x2="300" y2="630"/>
    <line x1="450" y1="0" x2="450" y2="630"/>
    <line x1="600" y1="0" x2="600" y2="630"/>
    <line x1="750" y1="0" x2="750" y2="630"/>
    <line x1="900" y1="0" x2="900" y2="630"/>
    <line x1="1050" y1="0" x2="1050" y2="630"/>
  </g>
  <!-- Logo icon -->
  <polygon points="600,140 660,240 540,240" fill="none" stroke="#03a9f4" stroke-width="3"/>
  <polygon points="600,165 645,235 555,235" fill="rgba(3,169,244,0.2)" stroke="#03a9f4" stroke-width="1.5"/>
  <!-- Title -->
  <text x="600" y="310" text-anchor="middle" font-family="system-ui,sans-serif" font-weight="700" font-size="64" fill="white" letter-spacing="-2">Parametrics</text>
  <!-- Subtitle -->
  <text x="600" y="370" text-anchor="middle" font-family="system-ui,sans-serif" font-size="26" fill="rgba(226,232,240,0.6)">Paragliding Flight Analysis &amp; Coaching</text>
  <!-- CTA line -->
  <text x="600" y="430" text-anchor="middle" font-family="system-ui,sans-serif" font-size="20" fill="#03a9f4">parametrics.app</text>
</svg>
